<?xml version="1.0" ?><svg height="16" viewBox="0 0 16 16" width="16" xmlns="http://www.w3.org/2000/svg"><g transform="translate(0,-1036.3622)"><g transform="translate(0,0.0198085)"><g transform="translate(1100.5659,-21.019708)"><g transform="translate(-116.0644,4.9999995)"><path d="M 0 0 L 0 0.5 L 0 7 L 7 7 L 7 4.0234375 L 10.900391 4.0234375 C 11.034341 4.0234375 11.350278 4.1224969 11.585938 4.3417969 C 11.821608 4.5613969 12 4.8693312 12 5.3320312 L 12 6.0722656 L 12 7.1210938 L 10.882812 6.0371094 L 10.1875 6.7558594 L 12.5 9 L 14.814453 6.7558594 L 14.117188 6.0371094 L 13 7.1210938 L 13 6.0722656 L 13 5.3320312 C 13 4.5931312 12.680728 3.9962281 12.267578 3.6113281 C 11.854438 3.2263281 11.370151 3.0234375 10.900391 3.0234375 L 7 3.0234375 L 7 0 L 0 0 z M 12.5 9 L 9 9 L 9 9.5 L 9 11.990234 L 5.0996094 11.990234 C 4.9656494 11.990234 4.6516756 11.889522 4.4160156 11.669922 C 4.1803556 11.450422 4 11.142288 4 10.679688 L 4 9.9394531 L 4 8.890625 L 5.1171875 9.9746094 L 5.8144531 9.2578125 L 3.5 7.0117188 L 1.1875 9.2578125 L 1.8847656 9.9746094 L 3 8.890625 L 3 9.9394531 L 3 10.679688 C 3 11.418588 3.321235 12.017444 3.734375 12.402344 C 4.147525 12.787244 4.6298394 12.990234 5.0996094 12.990234 L 9 12.990234 L 9 16 L 16 16 L 16 9 L 12.5 9 z M 1 1 L 6 1 L 6 6 L 1 6 L 1 1 z M 10 10 L 15 10 L 15 15 L 10 15 L 10 10 z" transform="translate(-984.5015,1052.3621)" style="fill:rgb(0,0,0)"/>
        </g>
      </g>
    </g>
  </g>

	
	
	</svg>
