<?xml version="1.0" ?><svg height="32" viewBox="0 0 32 32" width="32" xmlns="http://www.w3.org/2000/svg"><path d="M0 0h48v48H0z" fill="none"/><path d="M31.708,15.286l-9.002-8.999c-0.395-0.394-1.035-0.394-1.431,0c-0.395,0.394-0.395,1.034,0,1.428L29.563,16   l-8.287,8.285c-0.395,0.394-0.395,1.034,0,1.429c0.395,0.394,1.036,0.394,1.431,0l9.002-8.999   C32.097,16.325,32.097,15.675,31.708,15.286z" style="fill:rgb(0,0,0)"/><path d="M10.725,6.287c-0.395-0.394-1.036-0.394-1.431,0l-9.002,8.999c-0.39,0.389-0.39,1.039,0,1.429l9.002,8.999   c0.395,0.394,1.035,0.394,1.431,0c0.395-0.394,0.395-1.034,0-1.428L2.437,16l8.287-8.285C11.12,7.321,11.12,6.681,10.725,6.287z" style="fill:rgb(0,0,0)"/></svg>