<?xml version="1.0" ?><svg height="512" viewBox="0 0 512 512" width="512" xmlns="http://www.w3.org/2000/svg"><path d="M407.836,243.487c22.734-36.396,13.394-43.004-10.313-43.004h-23.792c-0.088,0-1.322-1.233-9.606,7.05    c-9.87,4.936-33.396,5.551-33.396,7.667c0,3.966,61.949-2.731,77.635,0c8.373,1.321-1.321,17.977-3.878,28.198    C404.046,247.364,406.603,245.426,407.836,243.487z M309.05,263.402c56.396-18.77,85.743-21.062,89.884-23.087    c3.879-2.557-3.876-5.816-23.088-5.112c-45.557,1.939-121.255,32.693-152.099,47.497l-27.052-82.217h173.248    c-2.38-24.85-134.739-19.916-297.768-19.916l-46.175,216.34C199.074,311.165,254.15,282.085,309.05,263.402L309.05,263.402z     M85.66,115.093c223.214,47.322,290.804,57.896,292.653,75.08c32.076,0,40.448,0,46.176,5.816    c18.595,17.359-12.865,59.658-12.865,59.658c-3.878,2.556-358.129,141.172-358.129,141.172h372.844l59.66-281.727H85.66z" style="fill:rgb(0,0,0)"/></svg>