<?xml version="1.0" ?><svg height="512" id="Layer_1" version="1.1" viewBox="0 0 512 512" width="512" xml:space="preserve" xmlns="http://www.w3.org/2000/svg" xmlns:cc="http://creativecommons.org/ns#" xmlns:dc="http://purl.org/dc/elements/1.1/" xmlns:inkscape="http://www.inkscape.org/namespaces/inkscape" xmlns:rdf="http://www.w3.org/1999/02/22-rdf-syntax-ns#" xmlns:sodipodi="http://sodipodi.sourceforge.net/DTD/sodipodi-0.dtd" xmlns:svg="http://www.w3.org/2000/svg"><defs id="defs12"/><g id="g5163"><rect height="512" id="rect2987" style="fill:#000000;fill-opacity:1;fill-rule:nonzero;stroke:none" width="512" x="0" y="5.6843419e-014"/><path d="m 302.48271,312.76711 c 41.4717,20.16998 85.0201,57.20024 102.7555,100.01188 -22.7521,18.43748 -25.7088,20.73591 -52.4481,43.22101 -25.7537,-49.57731 -56.9449,-76.90309 -99.5858,-87.84341 -25.0376,32.26657 -65.7934,69.94619 -129.5309,87.3442 -14.20627,-30.06568 -18.07685,-38.56256 -27.67222,-61.24784 50.98002,-11.81427 69.55472,-27.93152 94.51152,-75.7327 -1.7903,-58.01643 13.122,-115.06524 50.3217,-137.89426 19.3435,6.34474 51.3354,25.42389 60.4368,28.31394 -1.2886,5.89045 2.9503,12.58042 18.5684,15.99661 11.845,2.59745 39.72,6.68868 66.6223,-17.71625 16.4958,25.361 29.5369,49.86861 29.5369,49.86861 0,0 -51.4855,51.12884 -112.4216,35.0732 -0.4081,7.94376 -0.7058,10.4796 -1.0945,20.60501 z m 7.2315,-142.98776 c -31.1437,0 -57.181,-25.46881 -57.181,-56.88967 0,-31.41829 26.0373,-56.88968 57.181,-56.88968 31.1231,0 57.5659,25.47139 57.5659,56.88968 0,31.42086 -26.4428,56.88967 -57.5659,56.88967 z" id="AIM_2_" style="fill:#ffffff;fill-rule:evenodd"/></g></svg>