<?xml version="1.0" encoding="UTF-8"?><svg xmlns="http://www.w3.org/2000/svg" xmlns:xlink="http://www.w3.org/1999/xlink" viewBox="0 0 50 50" version="1.1"><path style="fill: #ff8a00" d="M25.531.156l-5.25 8.875-9.406-3.875.844 10.157-9.938 2.343L8.97 24.5.906 32.469l10.656 1.75L9.938 46l9.874-5.719 5.157 9.594 5.218-9.25 9.157 4.75-.219-10.5 9.781-1.188-6.718-8.374 6.593-7.907-9.531-1.625L40 5.406l-9.625 3.75zm8.063 12.938l-.188 9.594 5.282 6.625-8.594 2.375-4.782 7.406-5-7.407-8.5-2.875 5.376-6.906-.375-8.718L25 16.5zM20 21v2h10v-2zm0 5v2h10v-2z" id="surface1"/><metadata><rdf:RDF xmlns:rdf="http://www.w3.org/1999/02/22-rdf-syntax-ns#" xmlns:rdfs="http://www.w3.org/2000/01/rdf-schema#" xmlns:dc="http://purl.org/dc/elements/1.1/"><rdf:Description about="https://iconscout.com/legal#licenses" dc:title="wolfram,alpha,filled" dc:description="wolfram,alpha,filled" dc:publisher="Iconscout" dc:date="2017-12-09" dc:format="image/svg+xml" dc:language="en"><dc:creator><rdf:Bag><rdf:li>Icons8</rdf:li></rdf:Bag></dc:creator></rdf:Description></rdf:RDF></metadata></svg>