<?xml version="1.0" ?><svg height="512" id="Layer_1" version="1.1" viewBox="0 0 512 512" width="512" xml:space="preserve" xmlns="http://www.w3.org/2000/svg" xmlns:cc="http://creativecommons.org/ns#" xmlns:dc="http://purl.org/dc/elements/1.1/" xmlns:inkscape="http://www.inkscape.org/namespaces/inkscape" xmlns:rdf="http://www.w3.org/1999/02/22-rdf-syntax-ns#" xmlns:sodipodi="http://sodipodi.sourceforge.net/DTD/sodipodi-0.dtd" xmlns:svg="http://www.w3.org/2000/svg"><defs id="defs12"/><g id="g6114"><rect height="512" id="rect2987" rx="64" ry="64" style="fill:#2832e1;fill-opacity:1;fill-rule:nonzero;stroke:none" width="512" x="0" y="5.6843419e-014"/><path d="m 162.72217,205.28 c 2.3778,34 -16.0489,62.99111 -41.1734,64.75556 -25.115498,1.76 -47.408798,-24.36889 -49.786598,-58.37778 -2.3778,-34 16.0489,-62.99556 41.173298,-64.76 25.12,-1.76 47.4133,24.37778 49.7867,58.38222 z M 335.72657,64.328892 c -24.4044,-6.22667 -50.9955,15.50667 -59.3911,48.537778 -8.4178,33.03111 4.5511,64.85333 28.9556,71.08 24.3955,6.22222 51,-15.50223 59.3955,-48.53778 10.9334,-42.991112 -23.1111,-69.595558 -28.96,-71.079998 z m 57.2178,111.337778 c -25.6711,0.38222 -46.04,24.79555 -45.4756,62.61333 0.56,37.81333 21.7956,55.05333 47.4845,54.67111 25.6578,-0.38222 46.0355,-18.23111 45.48,-56.06222 -0.7422,-49.21778 -41.3422,-61.31111 -47.4889,-61.22222 z M 206.95767,56.000002 c -24.4266,0 -44.2266,27.377776 -44.2266,61.137778 0,33.76 19.8,61.12444 44.2266,61.12444 24.4267,0 44.2311,-27.36444 44.2311,-61.12444 0,-33.760002 -19.8044,-61.137778 -44.2311,-61.137778 z m -5.6533,189.866668 c -14.1111,20.26222 -30.1111,40.04444 -61.1644,65.96444 -31.0578,25.92 -44.231198,43.81778 -44.231198,70.2 0,26.38222 15.057798,70.2 57.875598,70.2 42.8178,0 63.52,-9.42667 97.4,-9.42667 33.88,0 56.4711,13.19556 99.2844,13.19556 42.8223,0 60.7023,-40.52 60.7023,-66.90222 0,-26.38222 -7.4311,-41.32 -41.7334,-71.43111 -21.9822,-19.31556 -40.6133,-35.04445 -69.7866,-75.56445 -14.4267,-20.03555 -31.0578,-22.61333 -48.4623,-22.61333 -17.4133,0 -35.7644,6.12444 -49.8844,26.37778 z" id="Baidu" style="fill:#ffffff;fill-opacity:1"/></g></svg>