<?xml version="1.0" encoding="utf-8"?>
<!-- Generator: Adobe Illustrator 18.1.1, SVG Export Plug-In . SVG Version: 6.00 Build 0)  -->
<svg version="1.1" id="Layer_1" xmlns="http://www.w3.org/2000/svg" xmlns:xlink="http://www.w3.org/1999/xlink" x="0px" y="0px"
	 width="31px" height="31px" viewBox="0 0 31 31" enable-background="new 0 0 31 31" xml:space="preserve">
<g>
	<g>
		<path fill="#FFFFFF" d="M15.521,30.316c-8.158,0-14.794-6.637-14.794-14.795c0-8.157,6.637-14.795,14.794-14.795
			c8.158,0,14.793,6.637,14.793,14.795C30.314,23.679,23.677,30.316,15.521,30.316z"/>
		<path fill="#CC0000" d="M15.521,1.412c7.781,0,14.109,6.33,14.109,14.109c0,7.78-6.329,14.109-14.109,14.109
			c-7.78,0-14.109-6.33-14.109-14.109C1.412,7.741,7.741,1.412,15.521,1.412 M15.521,0.041c-8.549,0-15.48,6.931-15.48,15.48
			C0.041,24.07,6.972,31,15.52,31C24.069,31,31,24.07,31,15.521C31,6.972,24.07,0.041,15.521,0.041L15.521,0.041z"/>
	</g>
	<g>
		<path fill="#004990" d="M10.708,17.063c-0.038-1.024-0.076-2.264-0.076-3.502h-0.038c-0.265,1.087-0.62,2.301-0.949,3.3
			L8.61,20.187H7.105l-0.911-3.288c-0.278-1.011-0.569-2.226-0.771-3.338H5.397c-0.051,1.151-0.089,2.465-0.152,3.527l-0.151,3.237
			H3.312l0.543-8.523h2.568l0.835,2.846c0.266,0.974,0.531,2.049,0.72,3.048h0.038c0.24-0.987,0.531-2.112,0.809-3.061l0.911-2.833
			h2.516l0.468,8.523h-1.884L10.708,17.063z"/>
		<path fill="#004990" d="M16.444,16.354v1.337h-2.419v-1.337H16.444z"/>
		<path fill="#004990" d="M18.88,20.325l-2.022-8.523h2.06l0.646,3.503c0.189,1.024,0.366,2.124,0.505,2.984h0.025
			c0.14-0.923,0.342-1.947,0.557-2.997l0.721-3.491h2.049l0.683,3.591c0.19,0.999,0.329,1.909,0.456,2.858h0.025
			c0.127-0.949,0.315-1.947,0.494-2.958l0.695-3.491h1.96l-2.2,8.523h-2.087l-0.721-3.667c-0.164-0.86-0.304-1.657-0.404-2.631
			h-0.026c-0.151,0.962-0.29,1.771-0.492,2.631l-0.81,3.667L18.88,20.325L18.88,20.325z"/>
	</g>
</g>
</svg>
