<?xml version="1.0" encoding="iso-8859-1"?>
<!-- Generator: Adobe Illustrator 19.0.0, SVG Export Plug-In . SVG Version: 6.00 Build 0)  -->
<svg version="1.1" id="Layer_1" xmlns="http://www.w3.org/2000/svg" xmlns:xlink="http://www.w3.org/1999/xlink" x="0px" y="0px"
	 viewBox="0 0 511.999 511.999" style="enable-background:new 0 0 511.999 511.999;" xml:space="preserve">
<g>
	<path style="fill:#2D527C;" d="M77.413,432.653c-7.921,0-14.345-6.423-14.345-14.345v-305.62c0-15.446,6.012-29.966,16.931-40.883
		l54.875-54.875c8.835-8.833,20.503-14.64,32.859-16.356C170.329,0.192,173.027,0,175.758,0H397.63
		c28.287,0,51.302,23.014,51.302,51.302v172.279c0,7.921-6.423,14.345-14.345,14.345c-7.921,0-14.345-6.423-14.345-14.345V51.3
		c0-12.468-10.143-22.613-22.613-22.613H175.757c-1.348,0-2.657,0.092-3.88,0.274c-0.053,0.007-0.106,0.016-0.158,0.023
		c-6.224,0.853-12.104,3.777-16.558,8.231L100.285,92.09c-5.5,5.5-8.528,12.814-8.528,20.596v305.622
		C91.758,426.231,85.335,432.653,77.413,432.653z"/>
	<path style="fill:#2D527C;" d="M362.231,211.135H149.767c-7.921,0-14.345-6.423-14.345-14.345s6.423-14.345,14.345-14.345H362.23
		c7.921,0,14.345,6.423,14.345,14.345S370.154,211.135,362.231,211.135z"/>
	<path style="fill:#2D527C;" d="M362.231,127.212H149.767c-7.921,0-14.345-6.423-14.345-14.345s6.423-14.345,14.345-14.345H362.23
		c7.921,0,14.345,6.423,14.345,14.345S370.154,127.212,362.231,127.212z"/>
	<path style="fill:#2D527C;" d="M362.231,295.059H149.767c-7.921,0-14.345-6.423-14.345-14.345c0-7.921,6.423-14.345,14.345-14.345
		H362.23c7.921,0,14.345,6.423,14.345,14.345C376.576,288.635,370.154,295.059,362.231,295.059z"/>
	<path style="fill:#2D527C;" d="M280.441,445.347c-7.921,0-14.345-6.423-14.345-14.345c0-1.767-3.932-5.147-10.097-5.147
		c-6.165,0-10.097,3.378-10.097,5.147c0,7.921-6.423,14.345-14.345,14.345s-14.345-6.423-14.345-14.345
		c0-18.658,17.4-33.836,38.786-33.836s38.786,15.178,38.786,33.836C294.786,438.923,288.362,445.347,280.441,445.347z"/>
	<path style="fill:#2D527C;" d="M457.18,435.601h-24.934c-7.921,0-14.345-6.423-14.345-14.345c0-7.921,6.423-14.345,14.345-14.345
		h24.934c7.921,0,14.345,6.423,14.345,14.345C471.525,429.177,465.102,435.601,457.18,435.601z"/>
	<path style="fill:#2D527C;" d="M79.753,435.601H54.819c-7.921,0-14.345-6.423-14.345-14.345c0-7.921,6.423-14.345,14.345-14.345
		h24.934c7.921,0,14.345,6.423,14.345,14.345C94.098,429.177,87.673,435.601,79.753,435.601z"/>
</g>
<circle style="fill:#CEE8FA;" cx="155.79" cy="421.25" r="76.4"/>
<g>
	<path style="fill:#2D527C;" d="M155.79,511.999c-50.035,0-90.741-40.707-90.741-90.742s40.706-90.741,90.741-90.741
		s90.741,40.706,90.741,90.741S205.826,511.999,155.79,511.999z M155.79,359.205c-34.216,0-62.052,27.836-62.052,62.052
		s27.836,62.053,62.052,62.053s62.052-27.837,62.052-62.053S190.007,359.205,155.79,359.205z"/>
	<path style="fill:#2D527C;" d="M120.051,435.601c-7.921,0-14.345-6.423-14.345-14.345c0-27.616,22.468-50.083,50.084-50.083
		c7.921,0,14.345,6.423,14.345,14.345c0,7.921-6.423,14.345-14.345,14.345c-11.798,0-21.395,9.596-21.395,21.393
		C134.396,429.177,127.973,435.601,120.051,435.601z"/>
</g>
<circle style="fill:#CEE8FA;" cx="356.201" cy="421.25" r="76.4"/>
<g>
	<path style="fill:#2D527C;" d="M356.207,511.999c-50.035,0-90.741-40.707-90.741-90.742s40.706-90.741,90.741-90.741
		s90.741,40.706,90.741,90.741S406.243,511.999,356.207,511.999z M356.207,359.205c-34.216,0-62.052,27.836-62.052,62.052
		s27.836,62.053,62.052,62.053s62.052-27.837,62.052-62.053S390.423,359.205,356.207,359.205z"/>
	<path style="fill:#2D527C;" d="M320.469,435.601c-7.921,0-14.345-6.423-14.345-14.345c0-27.616,22.466-50.083,50.083-50.083
		c7.921,0,14.345,6.423,14.345,14.345c0,7.921-6.423,14.345-14.345,14.345c-11.797,0-21.393,9.596-21.393,21.393
		C334.814,429.177,328.392,435.601,320.469,435.601z"/>
	<path style="fill:#2D527C;" d="M433.953,432.437c-7.921,0-14.345-6.423-14.345-14.345V309.514c0-7.921,6.423-14.345,14.345-14.345
		c7.921,0,14.345,6.423,14.345,14.345v108.578C448.298,426.013,441.876,432.437,433.953,432.437z"/>
</g>
<g>
</g>
<g>
</g>
<g>
</g>
<g>
</g>
<g>
</g>
<g>
</g>
<g>
</g>
<g>
</g>
<g>
</g>
<g>
</g>
<g>
</g>
<g>
</g>
<g>
</g>
<g>
</g>
<g>
</g>
</svg>
